<svg xmlns="http://www.w3.org/2000/svg" viewBox="0 0 640 120">

  <!-- Icono cuadrado teal -->
  <rect x="0" y="4" width="112" height="112" rx="24" ry="24" fill="#0e7070"/>

  <g transform="translate(56,60) scale(0.195)" stroke="white" stroke-linecap="round" stroke-linejoin="round" fill="none">
    <!-- Techo -->
    <polyline points="-104,-142 0,-252 104,-142" stroke-width="24"/>
    <!-- Cuerpo -->
    <rect x="-76" y="-142" width="152" height="118" stroke-width="22"/>
    <!-- Puerta -->
    <rect x="-31" y="-80" width="62" height="56" stroke-width="18"/>
    <!-- Plataforma -->
    <line x1="-138" y1="-24" x2="138" y2="-24" stroke-width="22"/>
    <!-- Pilotes -->
    <line x1="-104" y1="-24" x2="-104" y2="40" stroke-width="18"/>
    <line x1="-51" y1="-24" x2="-51" y2="40" stroke-width="18"/>
    <line x1="0" y1="-24" x2="0" y2="40" stroke-width="18"/>
    <line x1="51" y1="-24" x2="51" y2="40" stroke-width="18"/>
    <line x1="104" y1="-24" x2="104" y2="40" stroke-width="18"/>
    <!-- Escalera -->
    <line x1="110" y1="-24" x2="126" y2="40" stroke-width="16"/>
    <line x1="136" y1="-24" x2="152" y2="40" stroke-width="16"/>
    <line x1="112" y1="-6" x2="138" y2="-6" stroke-width="13"/>
    <line x1="117" y1="14" x2="143" y2="14" stroke-width="13"/>
    <line x1="122" y1="34" x2="148" y2="34" stroke-width="13"/>
    <!-- Olas -->
    <path d="M -158,65 Q -118,50 -78,65 Q -38,80 2,65 Q 42,50 82,65 Q 122,80 158,65" stroke-width="20"/>
    <path d="M -176,98 Q -131,83 -86,98 Q -41,113 0,98 Q 41,83 84,98 Q 124,113 164,98" stroke-width="16"/>
  </g>

  <!-- Texto ISLA.AR -->
  <text x="132" y="82"
        font-family="'Georgia', 'Times New Roman', serif"
        font-size="68"
        font-weight="700"
        letter-spacing="1"
        fill="#0e7070">ISLA.AR</text>

</svg>
